<?xml version="1.0" encoding="UTF-8"?>
<svg version="1.1" xmlns="http://www.w3.org/2000/svg" width="512" height="512">
<path d="M0 0 C8.90719272 6.25398638 13.06964919 16.82238966 17.5625 26.375 C18.26235574 27.84178526 18.96305241 29.30816955 19.66455078 30.77416992 C24.66263427 41.24721393 29.54652862 51.77447101 34.39575195 62.31713867 C38.1091702 70.3674728 41.98714484 78.31968201 46.04443359 86.20239258 C48.9375 91.86155125 48.9375 91.86155125 48.9375 94.0625 C89.8575 94.0625 130.7775 94.0625 172.9375 94.0625 C173.5975 92.0825 174.2575 90.1025 174.9375 88.0625 C175.53643175 86.68882968 176.16435026 85.32728665 176.82592773 83.98266602 C177.19106979 83.23570465 177.55621185 82.48874329 177.93241882 81.71914673 C178.32468155 80.92624237 178.71694427 80.13333801 179.12109375 79.31640625 C179.73843132 78.05671524 179.73843132 78.05671524 180.36824036 76.77157593 C181.70052401 74.0544154 183.03779678 71.33974228 184.375 68.625 C186.20346451 64.89924164 188.02939908 61.17224507 189.85546875 57.4453125 C190.30173615 56.53541061 190.74800354 55.62550873 191.20779419 54.68803406 C194.5778465 47.81232382 197.90104143 40.91610593 201.1875 34 C202.76871661 30.6864855 204.35249429 27.37420343 205.9375 24.0625 C206.50065918 22.88300781 206.50065918 22.88300781 207.07519531 21.6796875 C208.14507743 19.44851223 209.22668094 17.22345428 210.3125 15 C210.6105957 14.37407959 210.90869141 13.74815918 211.21582031 13.10327148 C214.35478081 6.7416801 218.03788437 1.49765846 224.9375 -0.9375 C230.28531353 -1.5317015 233.56773349 -1.087687 238.19921875 1.6015625 C244.75690053 7.11296247 246.78220593 13.38324765 249.34375 21.3671875 C249.74532318 22.58195267 250.14689636 23.79671783 250.56063843 25.04829407 C251.64412821 28.32689493 252.7108848 31.6107153 253.77449799 34.89580917 C254.88801798 38.32485389 256.01742195 41.74866026 257.14501953 45.1730957 C259.7615503 53.13006854 262.35221157 61.09533065 264.9375 69.0625 C265.59599315 71.089367 266.25451849 73.11622354 266.91308594 75.14306641 C269.06098984 81.75752151 271.20634536 88.37278808 273.34350586 94.99072266 C277.67242881 108.37224484 282.20797396 121.67990051 286.77441406 134.98193359 C291.83909769 149.73774018 296.78969638 164.52958433 301.70256042 179.33653259 C303.53061722 184.84425245 305.36914402 190.34842267 307.2109375 195.8515625 C308.02447743 198.28434498 308.83790405 200.71716533 309.65130615 203.1499939 C310.16533581 204.68647608 310.67984233 206.22279883 311.19488525 207.75894165 C313.58998338 214.90377763 315.9659031 222.05455076 318.2421875 229.23828125 C318.55655762 230.22868408 318.87092773 231.21908691 319.19482422 232.23950195 C320.648828 237.76634146 321.26783701 243.06547662 318.90234375 248.39453125 C315.65282575 253.56298467 311.4244161 257.99039314 307.29296875 262.4609375 C304.91012721 265.09273263 302.66694584 267.8000104 300.4375 270.5625 C296.82717558 275.02526213 293.05322071 279.28969533 289.1875 283.53125 C286.85887947 286.1509481 284.64187053 288.8376531 282.4375 291.5625 C278.82717558 296.02526213 275.05322071 300.28969533 271.1875 304.53125 C268.85887947 307.1509481 266.64187053 309.8376531 264.4375 312.5625 C260.82717558 317.02526213 257.05322071 321.28969533 253.1875 325.53125 C250.85887947 328.1509481 248.64187053 330.8376531 246.4375 333.5625 C242.82367469 338.02958963 239.0462352 342.29817038 235.17578125 346.54296875 C232.90902842 349.09454917 230.76209913 351.71421532 228.625 354.375 C225.19530426 358.62014788 221.60322749 362.64515647 217.875 366.625 C213.61795627 371.17043057 209.62890294 375.82670366 205.79296875 380.73828125 C203.31452263 383.84286112 200.65898894 386.76893414 198 389.71875 C195.76351786 392.26020698 193.62917476 394.86810342 191.5 397.5 C187.86656195 401.98103252 184.07258128 406.26845249 180.1875 410.53125 C177.85887947 413.1509481 175.64187053 415.8376531 173.4375 418.5625 C169.82717558 423.02526213 166.05322071 427.28969533 162.1875 431.53125 C159.85887947 434.1509481 157.64187053 436.8376531 155.4375 439.5625 C152.5293662 443.1572765 149.55208668 446.64510628 146.4375 450.0625 C141.23420796 455.77520524 136.20987022 461.68993635 131.578125 467.87890625 C127.6481949 473.03357484 122.08057279 477.01480907 115.9375 479.0625 C109.098674 479.75168402 103.70321797 478.8576721 98.04296875 474.65625 C89.73388961 467.70743431 82.97489747 459.17309061 76.19140625 450.78515625 C73.98603296 448.12112647 71.7057369 445.55461558 69.375 443 C65.69920479 438.96683581 62.28455184 434.78711037 58.90625 430.50390625 C55.72701938 426.56140796 52.32615559 422.82459926 48.9375 419.0625 C38.64444656 407.4137761 28.52686032 395.60776288 18.42138672 383.79638672 C15.92854479 380.88355958 13.43290566 377.97313078 10.9375 375.0625 C7.94785165 371.5753866 4.95874142 368.08782174 1.97265625 364.59765625 C-3.18673755 358.56931192 -8.361719 352.55519174 -13.5625 346.5625 C-21.72601276 337.1544678 -29.83948329 327.70513542 -37.875 318.1875 C-41.2397478 314.20286845 -44.6282918 310.2428296 -48.07421875 306.328125 C-56.14904201 297.12695114 -64.12838994 287.84167705 -72.0859375 278.5390625 C-74.10754983 276.17584439 -76.13396437 273.81686957 -78.1640625 271.4609375 C-98.64561302 247.67809503 -98.64561302 247.67809503 -98.45507812 238.38183594 C-97.64616065 231.54225763 -95.10481062 225.14491895 -92.8125 218.6875 C-91.9822105 216.28750663 -91.15796226 213.88548531 -90.33361816 211.48344421 C-89.76457677 209.82724707 -89.19351085 208.17174423 -88.6204834 206.516922 C-85.89910768 198.6487824 -83.3401907 190.7320087 -80.80096436 182.80358887 C-76.73849553 170.13099623 -72.53911685 157.51358509 -68.1875 144.9375 C-64.241674 133.52809258 -60.41074694 122.08851887 -56.69674683 110.60153198 C-54.94765364 105.19718677 -53.18628378 99.79682414 -51.4261322 94.39607239 C-49.82861737 89.49292179 -48.23240838 84.58936845 -46.64428711 79.6831665 C-43.66634332 70.48340545 -40.67518521 61.28820264 -37.65697002 52.10156441 C-36.25273498 47.82564267 -34.85563997 43.54767996 -33.47549438 39.26391602 C-32.1608024 35.18405859 -30.82718213 31.11085781 -29.47982025 27.04167747 C-28.98171136 25.52636225 -28.49033736 24.00881368 -28.00629425 22.48894691 C-25.09220648 13.35573922 -22.21363742 4.84781534 -13.625 -0.4375 C-8.7362792 -1.39139674 -4.72395151 -1.44610761 0 0 Z " fill="#1A744F" transform="translate(145.0625,16.9375)"/>
<path d="M0 0 C35.87953581 27.18480167 47.5780533 76.75460299 54.546875 118.9296875 C54.78653488 120.37445969 54.78653488 120.37445969 55.03103638 121.84841919 C57.75553241 138.43560985 59.79666705 155.04422602 61.46704102 171.76904297 C61.79944865 175.08236315 62.14176598 178.39434054 62.4893465 181.70608139 C62.82466429 184.92047745 63.14808888 188.13606591 63.47265625 191.3515625 C63.65843987 193.11859528 63.65843987 193.11859528 63.84797668 194.92132568 C63.95526596 196.01817688 64.06255524 197.11502808 64.1730957 198.24511719 C64.26984085 199.20150085 64.366586 200.15788452 64.46626282 201.14324951 C64.57531359 204.91269477 64.36710386 208.48222481 62.484375 211.8046875 C59.29365978 213.65736085 56.0687051 213.67831673 52.546875 212.9296875 C49.96991137 211.10972803 48.20533321 208.79597373 46.296875 206.3046875 C45.16817016 204.91780481 44.03925931 203.53108976 42.91015625 202.14453125 C42.34893066 201.43796387 41.78770508 200.73139648 41.20947266 200.00341797 C38.7129357 196.88952885 36.09797923 193.88275226 33.484375 190.8671875 C32.49657797 189.71424188 31.50959939 188.56059454 30.5234375 187.40625 C28.50182517 185.04303189 26.47541063 182.68405707 24.4453125 180.328125 C19.85310365 174.99418686 15.29042543 169.64926537 10.859375 164.1796875 C7.30419596 159.79816955 3.57917963 155.61258069 -0.21875 151.44140625 C-2.45447033 148.92817518 -4.58690182 146.35657271 -6.703125 143.7421875 C-11.91698938 137.30419844 -17.36353753 131.07805184 -22.80224609 124.83056641 C-29.70401585 116.88363068 -36.51999786 108.86290851 -43.3112793 100.8215332 C-48.65798951 94.49521461 -54.05659853 88.21350413 -59.453125 81.9296875 C-65.75790933 74.58827838 -72.05577147 67.24199999 -78.29125977 59.84155273 C-80.74208387 56.93665881 -83.21080423 54.04909699 -85.703125 51.1796875 C-86.24517578 50.55384766 -86.78722656 49.92800781 -87.34570312 49.28320312 C-88.38809718 48.08122019 -89.43349473 46.88183287 -90.48242188 45.68554688 C-97.08003171 38.06741123 -97.08003171 38.06741123 -97.88671875 33.4453125 C-96.94312162 27.97074898 -92.0545952 23.93500919 -88.453125 19.9296875 C-87.76863281 19.16140625 -87.08414063 18.393125 -86.37890625 17.6015625 C-63.64231855 -6.47756657 -29.70750213 -20.47884023 0 0 Z " fill="#FDFDFD" transform="translate(169.453125,222.0703125)"/>
<path d="M0 0 C6.1925973 4.85324443 11.99578318 10.05800513 17.28125 15.89599609 C17.98636719 16.65912109 18.69148437 17.42224609 19.41796875 18.20849609 C20.40216797 19.35318359 20.40216797 19.35318359 21.40625 20.52099609 C22.27636719 21.53033203 22.27636719 21.53033203 23.1640625 22.56005859 C24.82421228 26.03128086 24.2404696 28.2243614 23.28125 31.89599609 C21.53125 34.63427734 21.53125 34.63427734 19.28125 37.20849609 C18.4665625 38.15337891 17.651875 39.09826172 16.8125 40.07177734 C13.72340178 43.51841008 10.6316883 46.96198024 7.515625 50.38427734 C5.27990467 52.89750841 3.14747318 55.46911089 1.03125 58.08349609 C-4.18261438 64.52148515 -9.62916253 70.74763175 -15.06787109 76.99511719 C-21.96964085 84.94205291 -28.78562286 92.96277508 -35.5769043 101.00415039 C-41.42575605 107.92461141 -47.33591563 114.79254156 -53.23925781 121.66650391 C-59.0420204 128.4245766 -64.82805345 135.19563391 -70.57446289 142.00170898 C-74.43970784 146.57589373 -78.3368436 151.12220792 -82.23828125 155.66552734 C-85.5816734 159.56183189 -88.9066204 163.47309381 -92.21875 167.39599609 C-97.00417439 173.06260634 -101.82299582 178.69983537 -106.65625 184.32568359 C-108.76722055 186.78349531 -110.87038968 189.24772321 -112.96875 191.71630859 C-113.50250244 192.34287354 -114.03625488 192.96943848 -114.58618164 193.61499023 C-115.60007054 194.80545441 -116.61239233 195.99725585 -117.62280273 197.19067383 C-125.7916793 206.76812427 -125.7916793 206.76812427 -130.34375 207.39599609 C-133.71875 206.89599609 -133.71875 206.89599609 -135.40698242 205.80078125 C-141.66885928 196.70806521 -135.48832615 173.41501262 -134.32006836 163.15869141 C-133.90792897 159.53575514 -133.51044163 155.91143947 -133.11523438 152.28662109 C-131.28283586 135.7012578 -129.17273944 119.18272649 -125.78125 102.83349609 C-125.61141602 102.00809326 -125.44158203 101.18269043 -125.26660156 100.33227539 C-124.919122 98.65284434 -124.56941251 96.97387285 -124.21728516 95.29541016 C-123.74812902 93.03739522 -123.29996324 90.77615783 -122.85546875 88.51318359 C-121.03223088 79.50634765 -118.56416261 70.77887137 -115.78125 62.02099609 C-115.45737305 60.99917236 -115.13349609 59.97734863 -114.79980469 58.92456055 C-106.10147178 32.20547587 -91.82079627 3.09053026 -65.9140625 -10.58447266 C-42.65007481 -21.57203471 -19.79588675 -14.9047056 0 0 Z " fill="#FDFDFD" transform="translate(415.71875,228.10400390625)"/>
<path d="M0 0 C8.90719272 6.25398638 13.06964919 16.82238966 17.5625 26.375 C18.26235574 27.84178526 18.96305241 29.30816955 19.66455078 30.77416992 C24.66263427 41.24721393 29.54652862 51.77447101 34.39575195 62.31713867 C38.1091702 70.3674728 41.98714484 78.31968201 46.04443359 86.20239258 C48.9375 91.86155125 48.9375 91.86155125 48.9375 94.0625 C89.8575 94.0625 130.7775 94.0625 172.9375 94.0625 C173.5975 92.0825 174.2575 90.1025 174.9375 88.0625 C175.53643175 86.68882968 176.16435026 85.32728665 176.82592773 83.98266602 C177.19106979 83.23570465 177.55621185 82.48874329 177.93241882 81.71914673 C178.32468155 80.92624237 178.71694427 80.13333801 179.12109375 79.31640625 C179.73843132 78.05671524 179.73843132 78.05671524 180.36824036 76.77157593 C181.70052401 74.0544154 183.03779678 71.33974228 184.375 68.625 C186.20346451 64.89924164 188.02939908 61.17224507 189.85546875 57.4453125 C190.30173615 56.53541061 190.74800354 55.62550873 191.20779419 54.68803406 C194.5778465 47.81232382 197.90104143 40.91610593 201.1875 34 C202.76871661 30.6864855 204.35249429 27.37420343 205.9375 24.0625 C206.50065918 22.88300781 206.50065918 22.88300781 207.07519531 21.6796875 C208.14507743 19.44851223 209.22668094 17.22345428 210.3125 15 C210.6105957 14.37407959 210.90869141 13.74815918 211.21582031 13.10327148 C214.35478081 6.7416801 218.03788437 1.49765846 224.9375 -0.9375 C230.28531353 -1.5317015 233.56773349 -1.087687 238.19921875 1.6015625 C244.75690053 7.11296247 246.78220593 13.38324765 249.34375 21.3671875 C249.74532318 22.58195267 250.14689636 23.79671783 250.56063843 25.04829407 C251.64412821 28.32689493 252.7108848 31.6107153 253.77449799 34.89580917 C254.88801798 38.32485389 256.01742195 41.74866026 257.14501953 45.1730957 C259.7615503 53.13006854 262.35221157 61.09533065 264.9375 69.0625 C265.59599315 71.089367 266.25451849 73.11622354 266.91308594 75.14306641 C269.06098984 81.75752151 271.20634536 88.37278808 273.34350586 94.99072266 C277.67242881 108.37224484 282.20797396 121.67990051 286.77441406 134.98193359 C291.83909769 149.73774018 296.78969638 164.52958433 301.70256042 179.33653259 C303.53061722 184.84425245 305.36914402 190.34842267 307.2109375 195.8515625 C308.02447743 198.28434498 308.83790405 200.71716533 309.65130615 203.1499939 C310.16533581 204.68647608 310.67984233 206.22279883 311.19488525 207.75894165 C313.58998338 214.90377763 315.9659031 222.05455076 318.2421875 229.23828125 C318.55655762 230.22868408 318.87092773 231.21908691 319.19482422 232.23950195 C320.648828 237.76634146 321.26783701 243.06547662 318.90234375 248.39453125 C315.65282575 253.56298467 311.4244161 257.99039314 307.29296875 262.4609375 C304.91012721 265.09273263 302.66694584 267.8000104 300.4375 270.5625 C296.82717558 275.02526213 293.05322071 279.28969533 289.1875 283.53125 C286.85887947 286.1509481 284.64187053 288.8376531 282.4375 291.5625 C278.82717558 296.02526213 275.05322071 300.28969533 271.1875 304.53125 C268.85887947 307.1509481 266.64187053 309.8376531 264.4375 312.5625 C260.82717558 317.02526213 257.05322071 321.28969533 253.1875 325.53125 C250.85887947 328.1509481 248.64187053 330.8376531 246.4375 333.5625 C242.82367469 338.02958963 239.0462352 342.29817038 235.17578125 346.54296875 C232.90902842 349.09454917 230.76209913 351.71421532 228.625 354.375 C225.19530426 358.62014788 221.60322749 362.64515647 217.875 366.625 C213.61795627 371.17043057 209.62890294 375.82670366 205.79296875 380.73828125 C203.31452263 383.84286112 200.65898894 386.76893414 198 389.71875 C195.76351786 392.26020698 193.62917476 394.86810342 191.5 397.5 C187.86656195 401.98103252 184.07258128 406.26845249 180.1875 410.53125 C177.85887947 413.1509481 175.64187053 415.8376531 173.4375 418.5625 C169.82717558 423.02526213 166.05322071 427.28969533 162.1875 431.53125 C159.85887947 434.1509481 157.64187053 436.8376531 155.4375 439.5625 C152.5293662 443.1572765 149.55208668 446.64510628 146.4375 450.0625 C141.23420796 455.77520524 136.20987022 461.68993635 131.578125 467.87890625 C127.6481949 473.03357484 122.08057279 477.01480907 115.9375 479.0625 C109.098674 479.75168402 103.70321797 478.8576721 98.04296875 474.65625 C89.73388961 467.70743431 82.97489747 459.17309061 76.19140625 450.78515625 C73.98603296 448.12112647 71.7057369 445.55461558 69.375 443 C65.69920479 438.96683581 62.28455184 434.78711037 58.90625 430.50390625 C55.72701938 426.56140796 52.32615559 422.82459926 48.9375 419.0625 C38.64444656 407.4137761 28.52686032 395.60776288 18.42138672 383.79638672 C15.92854479 380.88355958 13.43290566 377.97313078 10.9375 375.0625 C7.94785165 371.5753866 4.95874142 368.08782174 1.97265625 364.59765625 C-3.18673755 358.56931192 -8.361719 352.55519174 -13.5625 346.5625 C-21.72601276 337.1544678 -29.83948329 327.70513542 -37.875 318.1875 C-41.2397478 314.20286845 -44.6282918 310.2428296 -48.07421875 306.328125 C-56.14904201 297.12695114 -64.12838994 287.84167705 -72.0859375 278.5390625 C-74.10754983 276.17584439 -76.13396437 273.81686957 -78.1640625 271.4609375 C-98.64561302 247.67809503 -98.64561302 247.67809503 -98.45507812 238.38183594 C-97.64616065 231.54225763 -95.10481062 225.14491895 -92.8125 218.6875 C-91.9822105 216.28750663 -91.15796226 213.88548531 -90.33361816 211.48344421 C-89.76457677 209.82724707 -89.19351085 208.17174423 -88.6204834 206.516922 C-85.89910768 198.6487824 -83.3401907 190.7320087 -80.80096436 182.80358887 C-76.73849553 170.13099623 -72.53911685 157.51358509 -68.1875 144.9375 C-64.241674 133.52809258 -60.41074694 122.08851887 -56.69674683 110.60153198 C-54.94765364 105.19718677 -53.18628378 99.79682414 -51.4261322 94.39607239 C-49.82861737 89.49292179 -48.23240838 84.58936845 -46.64428711 79.6831665 C-43.66634332 70.48340545 -40.67518521 61.28820264 -37.65697002 52.10156441 C-36.25273498 47.82564267 -34.85563997 43.54767996 -33.47549438 39.26391602 C-32.1608024 35.18405859 -30.82718213 31.11085781 -29.47982025 27.04167747 C-28.98171136 25.52636225 -28.49033736 24.00881368 -28.00629425 22.48894691 C-25.09220648 13.35573922 -22.21363742 4.84781534 -13.625 -0.4375 C-8.7362792 -1.39139674 -4.72395151 -1.44610761 0 0 Z M223.55859375 10.41015625 C220.16803413 14.78773549 217.8518699 19.72883351 215.4375 24.6875 C214.91760498 25.74090576 214.39770996 26.79431152 213.86206055 27.87963867 C209.49294389 36.78981239 205.31617076 45.78678627 201.17504883 54.8046875 C197.97122192 61.75834495 194.69292555 68.66963602 191.3359375 75.55078125 C190.9449437 76.35234146 190.55394989 77.15390167 190.15110779 77.97975159 C188.21466569 81.94468299 186.27139507 85.90615424 184.3215332 89.86450195 C183.61405237 91.30808455 182.90661219 92.75168707 182.19921875 94.1953125 C181.86864471 94.86166214 181.53807068 95.52801178 181.19747925 96.21455383 C179.49483219 99.48470242 179.49483219 99.48470242 178.9375 103.0625 C134.0575 103.0625 89.1775 103.0625 42.9375 103.0625 C42.2775 101.0825 41.6175 99.1025 40.9375 97.0625 C40.40912231 95.83832332 39.85445083 94.62487335 39.2644043 93.42919922 C38.94565842 92.77821762 38.62691254 92.12723602 38.29850769 91.45652771 C37.78529716 90.42230431 37.78529716 90.42230431 37.26171875 89.3671875 C36.90020218 88.63021133 36.53868561 87.89323517 36.16621399 87.13392639 C35.39118285 85.55412158 34.61462272 83.97506612 33.83666992 82.396698 C31.78171073 78.22596515 29.73926833 74.04913605 27.69921875 69.87109375 C27.29065643 69.03435623 26.88209412 68.19761871 26.46115112 67.33552551 C22.85659117 59.93373173 19.37577638 52.48039644 15.9375 45 C12.15321639 36.78743756 8.32305091 28.60490216 4.3125 20.5 C3.70921875 19.26721313 3.70921875 19.26721313 3.09375 18.00952148 C2.71992188 17.26259033 2.34609375 16.51565918 1.9609375 15.74609375 C1.48019775 14.78014282 1.48019775 14.78014282 0.98974609 13.79467773 C-0.19166627 11.84987015 -1.28511386 10.49024959 -3.0625 9.0625 C-7.15937134 8.43363168 -7.15937134 8.43363168 -11.0625 9.0625 C-14.69996923 12.88909635 -16.35381815 16.95610788 -17.95301819 21.89227295 C-18.21566654 22.67423703 -18.47831489 23.45620112 -18.74892229 24.26186109 C-19.62395451 26.8754547 -20.48390981 29.49375754 -21.34399414 32.11230469 C-21.96934812 33.9903418 -22.59562789 35.86807085 -23.22276306 37.74551392 C-24.92217505 42.84174084 -26.60859618 47.94218279 -28.29274297 53.04347134 C-30.0588479 58.38558882 -31.83687229 63.72373587 -33.6136322 69.06231689 C-36.97932323 79.18115461 -40.33429686 89.3035119 -43.68543667 99.42717671 C-47.48893956 110.91569881 -51.30423946 122.40029093 -55.12060368 133.8845458 C-61.64699984 153.52454287 -68.16462452 173.16743237 -74.67214966 192.81369019 C-74.94791051 193.6461499 -75.22367136 194.4786096 -75.5077886 195.33629537 C-76.01155219 196.85711573 -76.51523939 198.3779614 -77.01882511 199.89884067 C-77.24526878 200.58248856 -77.47171245 201.26613645 -77.70501804 201.97050095 C-77.92519946 202.63543359 -78.14538088 203.30036624 -78.37223446 203.98544836 C-78.86410314 205.46551159 -79.35844943 206.94475241 -79.85446823 208.42342997 C-80.24971449 209.60232805 -80.24971449 209.60232805 -80.65294552 210.80504227 C-81.01028834 211.86759605 -81.01028834 211.86759605 -81.37485021 212.95161557 C-82.79127997 217.29964209 -84.0124618 221.70741126 -85.25585938 226.10742188 C-86.88020416 231.74425472 -86.88020416 231.74425472 -88.21484375 234.07421875 C-89.63527971 237.40602475 -89.76794153 240.56649929 -89.0625 244.0625 C-87.53521564 246.77905715 -85.53129535 248.89063767 -83.375 251.125 C-82.17396873 252.43703293 -80.97346246 253.74954661 -79.7734375 255.0625 C-79.1556543 255.72507812 -78.53787109 256.38765625 -77.90136719 257.0703125 C-75.02321977 260.18843291 -72.26533779 263.40703024 -69.5 266.625 C-68.41702545 267.87531085 -67.33369334 269.1253121 -66.25 270.375 C-61.66290229 275.6763903 -57.1038775 281.00177358 -52.54638672 286.32861328 C-50.05354476 289.24144046 -47.55787234 292.15184061 -45.0625 295.0625 C-44.0624866 296.22915518 -43.06248659 297.39582184 -42.0625 298.5625 C-41.32 299.42875 -41.32 299.42875 -40.5625 300.3125 C-36.0625 305.5625 -36.0625 305.5625 -34.56274414 307.31225586 C-33.56198394 308.47978228 -32.56117008 309.6472627 -31.56030273 310.81469727 C-29.07149324 313.71783629 -26.58359909 316.62174949 -24.09765625 319.52734375 C-18.93826284 325.55568763 -13.76333909 331.56985906 -8.5625 337.5625 C-2.86393416 344.12864411 2.80154973 350.72242624 8.45361328 357.32861328 C10.94645521 360.24144042 13.44209434 363.15186922 15.9375 366.0625 C18.92714835 369.5496134 21.91625858 373.03717826 24.90234375 376.52734375 C30.06173716 382.55568763 35.23666091 388.56985906 40.4375 394.5625 C46.13606584 401.12864411 51.80154973 407.72242624 57.45361328 414.32861328 C59.94645521 417.24144042 62.44209434 420.15186922 64.9375 423.0625 C67.92714835 426.5496134 70.91625858 430.03717826 73.90234375 433.52734375 C81.21267526 442.06928108 88.55483513 450.58298207 95.9375 459.0625 C96.77152344 460.02285156 97.60554687 460.98320312 98.46484375 461.97265625 C99.17769531 462.78605469 99.89054688 463.59945313 100.625 464.4375 C101.52798828 465.47003906 101.52798828 465.47003906 102.44921875 466.5234375 C104.94520333 469.10458691 107.07585046 469.34660839 110.5625 469.5625 C115.86176144 469.48647042 118.26322541 467.92427459 121.9453125 464.2421875 C122.60273438 463.52289063 123.26015625 462.80359375 123.9375 462.0625 C125.01644531 460.92167969 125.01644531 460.92167969 126.1171875 459.7578125 C130.86647759 454.6141177 135.285862 449.22216364 139.6875 443.78125 C142.58107889 440.28484218 145.63099183 436.94741868 148.6875 433.59375 C151.01612053 430.9740519 153.23312947 428.2873469 155.4375 425.5625 C159.04782442 421.09973787 162.82177929 416.83530467 166.6875 412.59375 C169.01612053 409.9740519 171.23312947 407.2873469 173.4375 404.5625 C177.04782442 400.09973787 180.82177929 395.83530467 184.6875 391.59375 C187.01612053 388.9740519 189.23312947 386.2873469 191.4375 383.5625 C195.04782442 379.09973787 198.82177929 374.83530467 202.6875 370.59375 C205.01612053 367.9740519 207.23312947 365.2873469 209.4375 362.5625 C213.04782442 358.09973787 216.82177929 353.83530467 220.6875 349.59375 C223.01612053 346.9740519 225.23312947 344.2873469 227.4375 341.5625 C231.04782442 337.09973787 234.82177929 332.83530467 238.6875 328.59375 C241.01612053 325.9740519 243.23312947 323.2873469 245.4375 320.5625 C249.04782442 316.09973787 252.82177929 311.83530467 256.6875 307.59375 C259.01612053 304.9740519 261.23312947 302.2873469 263.4375 299.5625 C267.04782442 295.09973787 270.82177929 290.83530467 274.6875 286.59375 C277.01612053 283.9740519 279.23312947 281.2873469 281.4375 278.5625 C284.3456338 274.9677235 287.32291332 271.47989372 290.4375 268.0625 C294.37327479 263.73589043 298.12436157 259.2919862 301.78515625 254.73046875 C303.18051252 253.00083475 304.60374848 251.29318545 306.05859375 249.61328125 C308.89580746 246.25086903 310.75246546 243.9876727 311.625 239.625 C310.88186492 235.77420911 309.68834213 232.4609554 308.10546875 228.8828125 C304.83845742 220.9939089 302.60336549 212.70214879 300.1875 204.5234375 C299.94 203.69070312 299.6925 202.85796875 299.4375 202 C299.2209375 201.26652344 299.004375 200.53304687 298.78125 199.77734375 C297.86843936 196.840291 296.89382374 193.92597878 295.91949272 191.00887299 C294.74229957 187.47682022 293.57165475 183.94261319 292.40174866 180.40814209 C292.04454264 179.32910685 292.04454264 179.32910685 291.68012035 178.22827291 C291.16871207 176.68339391 290.65732012 175.13850951 290.14594269 173.5936203 C284.17828622 155.56627902 278.19826444 137.54305776 272.21157169 119.52202988 C268.75359655 109.11194296 265.29960864 98.70056376 261.85473633 88.28613281 C258.84294386 79.18101347 255.82379038 70.07837447 252.79575437 60.97864366 C251.19510908 56.16758755 249.59817689 51.35537047 248.01008797 46.5401535 C246.5179129 42.0161314 245.01592399 37.49548897 243.5063343 32.97724915 C242.95443725 31.31963258 242.4061372 29.66081337 241.86172104 28.00072479 C241.11757749 25.73342956 240.36056945 23.4708312 239.60023499 21.20892334 C239.38825771 20.55260162 239.17628043 19.8962799 238.9578796 19.22006965 C237.5764668 15.16832762 235.91207837 12.15200652 232.9375 9.0625 C228.5824186 7.55801733 226.92810809 7.08490483 223.55859375 10.41015625 Z " fill="#FBFCFC" transform="translate(145.0625,16.9375)"/>
<path d="M0 0 C4.58649995 2.64661239 7.99440105 6.06314105 10 11 C10.62300042 17.23000418 9.84701963 21.93187582 6 27 C2.44396535 30.24920865 -1.20591353 32.27016179 -6.0625 32.5625 C-12.06645623 31.70479197 -15.98414694 29.55714852 -19.9375 24.9375 C-22.9636662 20.2880261 -22.86361481 15.34311217 -22 10 C-17.59705337 0.68607444 -9.74504019 -1.92604852 0 0 Z " fill="#1F7752" transform="translate(365,274)"/>
<path d="M0 0 C4.881441 2.26638332 7.70028068 5.13520912 10 10 C10.84056352 14.73179291 10.96479662 18.98450021 8.859375 23.3828125 C5.92244744 27.57179865 2.9618835 30.41219728 -2 32 C-7.87727326 32.75835784 -11.37352926 31.9589568 -16.234375 28.54296875 C-19.75806447 25.46363835 -21.59954054 22.3902424 -22.375 17.76171875 C-22.75265975 10.73960777 -20.01903765 7.3218933 -15.5 2.125 C-11.03379666 -1.39555314 -5.35318651 -0.78680076 0 0 Z " fill="#1F7752" transform="translate(159,274)"/>
</svg>
