<svg enable-background="new 0 0 24 24" viewBox="0 0 24 24" xmlns="http://www.w3.org/2000/svg"><path d="m21.564 22.943c1.385-.265 2.436-1.482 2.436-2.943v-13c0-1.654-1.346-3-3-3h-2.465l-2-3h-9.07l-2 3h-2.465c-.118 0-.23.021-.344.035z" fill="#bebebe"/><path d="m.23 5.851c-.147.355-.23.742-.23 1.149v13c0 1.654 1.346 3 3 3h14.379z" fill="#bebebe"/><g fill="#ebebeb"><circle cx="20" cy="8" r="1"/><path d="m15.59 16.969c.87-.899 1.41-2.119 1.41-3.469 0-2.761-2.239-5-5-5-1.35 0-2.57.54-3.469 1.41z"/><path d="m7.08 12.702c-.042.261-.08.524-.08.798 0 2.761 2.239 5 5 5 .273 0 .537-.038.798-.08z"/></g><path d="m23 24c-.256 0-.512-.098-.707-.293l-22-22c-.391-.391-.391-1.023 0-1.414s1.023-.391 1.414 0l22 22c.391.391.391 1.023 0 1.414-.195.195-.451.293-.707.293z" fill="#323232"/></svg>