<svg enable-background="new 0 0 24 24" viewBox="0 0 24 24" xmlns="http://www.w3.org/2000/svg"><circle cx="12" cy="12" fill="#bee6fa" r="12"/><path d="m14 19.07c0-.669.334-1.293.891-1.664l1.219-.812c.556-.371.89-.996.89-1.664v-.93c0-1.104-.896-2-2-2h-3c-1.104 0-2-.896-2-2v-1c0-1.104.896-2 2-2 .613 0 1.173.346 1.447.895l.211.422c.21.418.638.683 1.106.683.683 0 1.236-.553 1.236-1.236v-7.066c-1.253-.444-2.595-.698-4-.698-5.944 0-10.866 4.327-11.82 10h5.82c1.104 0 2 .896 2 2v11.302c1.253.444 2.595.698 4 .698.683 0 1.348-.07 2-.18z" fill="#8cbe3c"/></svg>