<svg enable-background="new 0 0 24 24" viewBox="0 0 24 24" xmlns="http://www.w3.org/2000/svg"><path d="m22 0h-20c-1.104 0-2 .896-2 2v20c0 1.104.896 2 2 2h20c1.105 0 2-.896 2-2v-20c0-1.104-.895-2-2-2z" fill="#505050"/><g fill="#323232"><path d="m2 19h2v2h-2z"/><path d="m2 14h2v2h-2z"/><path d="m2 8h2v2h-2z"/><path d="m2 3h2v2h-2z"/></g><path d="m6 13h12v7h-12z" fill="#8cbe3c"/><path d="m6 4h12v7h-12z" fill="#8cbe3c"/><path d="m20 19h2v2h-2z" fill="#323232"/><path d="m20 14h2v2h-2z" fill="#323232"/><path d="m20 8h2v2h-2z" fill="#323232"/><path d="m20 3h2v2h-2z" fill="#323232"/></svg>