<svg enable-background="new 0 0 24 24" viewBox="0 0 24 24" xmlns="http://www.w3.org/2000/svg"><path d="m11 18c-1.104 0-2 .895-2 2 0 1.104.896 2 2 2s2-.896 2-2-.896-2-2-2zm3.203-16h-5.203c-2.757 0-5 2.243-5 5 0 1.104.896 2 2 2s2-.896 2-2c0-.551.448-1 1-1h5.203c.991 0 1.797.806 1.797 1.797 0 .643-.347 1.241-.905 1.56l-5.087 2.907c-.959.548-1.292 1.77-.744 2.729.369.646 1.044 1.008 1.738 1.008.336 0 .678-.085.99-.264l5.088-2.907c1.801-1.03 2.92-2.959 2.92-5.033 0-3.196-2.601-5.797-5.797-5.797z" fill="#8cbe3c"/></svg>