<svg enable-background="new 0 0 24 24" viewBox="0 0 24 24" xmlns="http://www.w3.org/2000/svg"><path d="m3.408 17.869s-.149 4.011-2.969 4.67c0 0-.497.149-.433.701.061.549.804.7.804.7s12.812 1.259 11.511-7.756l-3.178-3.183c-1.945-.023-5.804.256-5.735 4.868z" fill="#a57d52"/><path d="m23.334.51c-.823-.737-2.089-.667-2.827.155l-7.426 8.181 2.834 2.83 7.574-8.343c.738-.823.668-2.086-.155-2.823z" fill="#505050"/><path d="m18.278 22.515 5.657 1.414-1.414-5.656-13.859-13.859-4.243 4.242z" fill="#f1c40f"/><path d="m.884.878c-1.173 1.173-1.181 3.062-.01 4.234l1.414 1.414 4.243-4.243-1.405-1.405c-1.171-1.171-3.072-1.17-4.242 0z" fill="#f0b496"/><path d="m2.48 3.974h6v3h-6z" fill="#505050" transform="matrix(.7071 -.7071 .7071 .7071 -2.266 5.4783)"/></svg>
