<svg enable-background="new 0 0 24 24" viewBox="0 0 24 24" xmlns="http://www.w3.org/2000/svg"><path d="m19.001 15.5c.322 0 .646-.103.92-.316.654-.509.772-1.451.263-2.105l-2.599-3.342c-.859-1.104-2.154-1.737-3.553-1.737h-4.065c-1.399 0-2.694.633-3.552 1.737l-2.599 3.342c-.509.654-.391 1.596.263 2.105.654.508 1.596.391 2.105-.263l1.926-2.477c-.067.322-.11.655-.11 1v9.056c0 .825.675 1.5 1.5 1.5s1.5-.675 1.5-1.5v-4.5h2v4.5c0 .825.675 1.5 1.5 1.5s1.5-.675 1.5-1.5v-9.056c0-.345-.043-.678-.11-1l1.926 2.477c.296.38.738.579 1.185.579z" fill="#46a046"/><circle cx="12" cy="3" fill="#8cbe3c" r="3"/></svg>