<svg enable-background="new 0 0 24 24" viewBox="0 0 24 24" xmlns="http://www.w3.org/2000/svg"><path d="m15 10v-7h-12v9h8.023c.912-1.208 2.346-2 3.977-2z" fill="#2980b9"/><path d="m10 12h-7v-9h12v7h3v-8c0-1.105-.896-2-2-2h-14c-1.104 0-2 .895-2 2v13.999c0 1.105.896 2 2 2h8z" fill="#bee6fa"/><path d="m23.561 21.439-2.667-2.667c1.738-2.709 1.426-6.353-.944-8.722-1.367-1.367-3.159-2.05-4.95-2.05s-3.583.683-4.95 2.05c-2.734 2.734-2.734 7.166 0 9.899 1.367 1.368 3.158 2.051 4.95 2.051 1.314 0 2.626-.371 3.772-1.106l2.667 2.667c.293.293.677.439 1.061.439s.768-.146 1.061-.439c.585-.586.585-1.536 0-2.122zm-5.733-3.611c-.755.756-1.76 1.172-2.828 1.172s-2.073-.416-2.828-1.172c-.756-.755-1.172-1.76-1.172-2.828s.416-2.073 1.172-2.828c.755-.756 1.76-1.172 2.828-1.172s2.073.416 2.828 1.172c.756.755 1.172 1.76 1.172 2.828s-.416 2.073-1.172 2.828z" fill="#505050"/></svg>
