<svg enable-background="new 0 0 24 24" viewBox="0 0 24 24" xmlns="http://www.w3.org/2000/svg"><path d="m4.829 17-2.575 4.121c.804.553 1.776.879 2.826.879h4.92v-5z" fill="#46a046"/><path d="m7.039 15.464c.81.506 1.8-.302 1.467-1.197l-1.836-4.93-5.236.51c-.95.093-1.243 1.337-.433 1.843l.899.562-1.06 1.696c-1.487 2.38-.99 5.671 1.414 7.173l3.886-6.219z" fill="#8cbe3c"/><path d="m19.134 17h4.866c0-1-.189-1.916-.739-2.81l-2.579-4.19-4.258 2.621z" fill="#46a046"/><path d="m17 17v5h1.65c2.807.019 5.331-2.166 5.35-5z" fill="#8cbe3c"/><path d="m17 22v-5-1.012c0-.942-1.21-1.348-1.793-.601l-3.207 4.113 3.207 4.113c.583.747 1.793.341 1.793-.601z" fill="#8cbe3c"/><path d="m12.233 4.832-2.433-4.214c-.866.5-1.565 1.121-2.064 2.045l-2.34 4.329 4.399 2.377z" fill="#46a046"/><g fill="#8cbe3c"><path d="m13.3 6.68 4.33-2.5-.825-1.429c-1.387-2.44-4.541-3.534-7.005-2.134z"/><path d="m17.63 4.18-4.33 2.5-.876.506c-.816.471-.562 1.722.375 1.853l5.166.721 1.958-4.834c.355-.877-.601-1.723-1.417-1.252z"/></g></svg>