<svg enable-background="new 0 0 24 24" viewBox="0 0 24 24" xmlns="http://www.w3.org/2000/svg"><circle cx="12" cy="12" fill="#1abc9c" r="2"/><path d="m16.819 7.181c-.698-.698-1.417-1.324-2.141-1.914-.85.442-1.75 1-2.677 1.691.886.663 1.793 1.44 2.696 2.343 2.291 2.291 4.064 4.936 4.864 7.258.636 1.846.462 2.945.203 3.204-.147.149-.514.237-.982.237-2.079 0-5.817-1.64-9.48-5.302-2.291-2.292-4.063-4.937-4.863-7.258-.636-1.846-.462-2.945-.203-3.204.147-.148.515-.236.982-.236 1.034 0 2.478.407 4.118 1.265.885-.722 1.779-1.367 2.667-1.915-2.454-1.512-4.852-2.35-6.785-2.35-1.274 0-2.347.358-3.104 1.114-2.661 2.661-.393 9.245 5.067 14.704 3.909 3.909 8.392 6.182 11.601 6.182 1.274 0 2.347-.358 3.103-1.114 2.662-2.662.394-9.245-5.066-14.705z" fill="#8cbe3c"/><path d="m21.886 2.114c-.757-.756-1.83-1.114-3.104-1.114-3.209 0-7.693 2.273-11.601 6.181-5.46 5.46-7.728 12.043-5.067 14.704.757.757 1.83 1.115 3.104 1.115 1.934 0 4.333-.839 6.788-2.35-.891-.549-1.788-1.188-2.676-1.911-1.638.855-3.08 1.261-4.112 1.261-.467 0-.834-.088-.982-.236-.259-.259-.433-1.358.203-3.204.8-2.321 2.573-4.966 4.864-7.258 3.662-3.662 7.4-5.302 9.48-5.302.467 0 .834.088.982.236.259.259.433 1.358-.203 3.204-.8 2.321-2.573 4.966-4.864 7.258-.903.903-1.81 1.681-2.696 2.343.927.692 1.827 1.25 2.677 1.691.724-.59 1.443-1.216 2.141-1.914 5.459-5.459 7.727-12.042 5.066-14.704z" fill="#46a046"/></svg>
