<svg enable-background="new 0 0 24 24" viewBox="0 0 24 24" xmlns="http://www.w3.org/2000/svg"><path d="m20 24h-14c-.552 0-1-.448-1-1 0-.552.448-1 1-1h14c.552 0 1 .448 1 1 0 .552-.448 1-1 1z" fill="#8c8c8c"/><path d="m9 19h8v3h-8z" fill="#a0a0a0"/><path d="m15.25 3.5.75-1.5h-2l-1-2-1 2h-2l.75 1.5z" fill="#46a046"/><path d="m15.753 7.376-1.476-.738c.73-.436 1.223-1.226 1.223-2.138 0-.357-.083-.693-.219-1h-4.563c-.135.307-.219.643-.219 1 0 .912.493 1.702 1.223 2.139l-1.476.738c-.064.032-.111.083-.17.121l-5.076-3.498-.332 3.321 4.606 3.29.726 8.389h6l.826-10.078c-.081-.654-.466-1.242-1.073-1.546z" fill="#74b874"/><path d="m5 4h-2l.5 5h1z" fill="#46a046"/><path d="m4 0s-2 1.333-2 2.667c0 .587.536 1.045 1 1.333h1 1c.464-.288 1-.746 1-1.333 0-1.334-2-2.667-2-2.667z" fill="#f1c40f"/><path d="m18.749 7-1.923 1.922-.636 7.139 5.81-5.81z" fill="#46a046"/></svg>
