<svg enable-background="new 0 0 24 24" viewBox="0 0 24 24" xmlns="http://www.w3.org/2000/svg"><path d="m13.5 24c-4.136 0-7.5-3.364-7.5-7.5v-3.5c0-.553.447-1 1-1s1 .447 1 1v3.5c0 3.032 2.468 5.5 5.5 5.5s5.5-2.468 5.5-5.5v-2.5c0-.553.447-1 1-1s1 .447 1 1v2.5c0 4.136-3.364 7.5-7.5 7.5z" fill="#8c8c8c"/><path d="m20 15c-2.206 0-4-1.794-4-4s1.794-4 4-4 4 1.794 4 4-1.794 4-4 4z" fill="#505050"/><circle cx="20" cy="11" fill="#bebebe" r="2"/><path d="m13 0h-2c-1.105 0-2 .895-2 2v3c0 1.105.896 2 2 2h1c0 2.757-2.243 5-5 5s-5-2.243-5-5h1c1.104 0 2-.895 2-2v-3c0-1.105-.896-2-2-2h-2c-.553 0-1 .447-1 1v6c0 3.859 3.141 7 7 7s7-3.141 7-7v-6c0-.553-.447-1-1-1z" fill="#505050"/></svg>
