<svg enable-background="new 0 0 24 24" viewBox="0 0 24 24" xmlns="http://www.w3.org/2000/svg"><path d="m0 0v7c0 4.418 3.582 8 8 8s8-3.582 8-8v-7z" fill="#8cbe3c"/><g fill="#fff"><path d="m8 8c2.045 0 3.803 1.237 4.576 3h-9.152c.773-1.763 2.531-3 4.576-3z"/><circle cx="11" cy="5" r="1"/><circle cx="5" cy="5" r="1"/></g><path d="m8 10v6c0 4.418 3.582 8 8 8s8-3.582 8-8v-6z" fill="#2980b9"/><circle cx="19" cy="14" fill="#fff" r="1"/><circle cx="13" cy="14" fill="#fff" r="1"/><path d="m16 21c-2.045 0-3.803-1.237-4.576-3h9.152c-.773 1.763-2.531 3-4.576 3z" fill="#fff"/></svg>
