<svg enable-background="new 0 0 24 24" viewBox="0 0 24 24" xmlns="http://www.w3.org/2000/svg"><path d="m22 6h-20c-1.104 0-2 .896-2 2v14c0 1.104.896 2 2 2h20c1.104 0 2-.896 2-2v-14c0-1.104-.896-2-2-2z" fill="#8c5a3c"/><path d="m14.703 6 4.948-4.241c.419-.359.468-.991.108-1.41s-.992-.468-1.41-.108l-6.349 5.442-6.349-5.442c-.418-.359-1.05-.31-1.41.108-.36.42-.311 1.051.108 1.41l4.948 4.241z" fill="#505050"/><path d="m15 19c0 1.104-.896 2-2 2h-8c-1.104 0-2-.896-2-2v-8c0-1.104.896-2 2-2h8c1.104 0 2 .896 2 2z" fill="#1eaae1"/><g fill="#bebebe"><circle cx="19.5" cy="15.5" r="1.5"/><circle cx="19.5" cy="10.5" r="1.5"/></g></svg>