<svg enable-background="new 0 0 24 24" viewBox="0 0 24 24" xmlns="http://www.w3.org/2000/svg"><path d="m1.5 6.177c.805 0 1.127.26 1.713.733.723.584 1.714 1.385 3.532 1.385 1.819 0 2.81-.8 3.534-1.384.586-.474.91-.734 1.715-.734.807 0 1.13.26 1.718.734.724.584 1.716 1.384 3.535 1.384s2.811-.799 3.535-1.384c.587-.474.911-.734 1.718-.734.829 0 1.5-.711 1.5-1.588 0-.878-.671-1.589-1.5-1.589-1.819 0-2.811.799-3.535 1.384-.587.474-.911.734-1.718.734s-1.13-.261-1.718-.734c-.724-.585-1.716-1.384-3.535-1.384-1.818 0-2.81.799-3.534 1.384-.586.474-.91.734-1.716.734-.804 0-1.127-.261-1.712-.733-.723-.585-1.714-1.385-3.532-1.385-.829 0-1.5.711-1.5 1.588s.671 1.589 1.5 1.589z" fill="#bee6fa"/><path d="m22.5 15.706c-1.819 0-2.811.799-3.535 1.384-.587.474-.911.734-1.718.734s-1.13-.26-1.718-.734c-.724-.584-1.716-1.384-3.535-1.384-1.818 0-2.81.799-3.534 1.384-.586.474-.91.734-1.716.734-.804 0-1.127-.26-1.712-.733-.724-.584-1.714-1.385-3.532-1.385-.829 0-1.5.711-1.5 1.588s.671 1.588 1.5 1.588c.805 0 1.127.26 1.713.733.723.585 1.714 1.385 3.532 1.385 1.819 0 2.81-.8 3.534-1.384.586-.474.91-.734 1.715-.734.807 0 1.13.26 1.718.734.724.585 1.716 1.384 3.535 1.384s2.811-.799 3.535-1.384c.587-.474.911-.734 1.718-.734.829 0 1.5-.711 1.5-1.588s-.671-1.588-1.5-1.588z" fill="#2980b9"/><path d="m22.5 9.353c-1.819 0-2.811.799-3.535 1.384-.587.474-.911.734-1.718.734s-1.13-.261-1.718-.734c-.724-.584-1.716-1.384-3.535-1.384-1.818 0-2.81.799-3.534 1.384-.586.474-.91.734-1.716.734-.804 0-1.127-.261-1.712-.733-.723-.585-1.714-1.385-3.532-1.385-.829 0-1.5.711-1.5 1.588s.671 1.588 1.5 1.588c.805 0 1.127.261 1.713.733.723.584 1.714 1.385 3.532 1.385 1.819 0 2.81-.8 3.534-1.383.586-.474.91-.734 1.715-.734.807 0 1.13.261 1.718.734.724.584 1.716 1.383 3.535 1.383s2.811-.799 3.535-1.383c.587-.474.911-.734 1.718-.734.829 0 1.5-.711 1.5-1.588s-.671-1.589-1.5-1.589z" fill="#1eaae1"/></svg>