<svg enable-background="new 0 0 24 24" viewBox="0 0 24 24" xmlns="http://www.w3.org/2000/svg"><circle cx="12" cy="12" fill="#1eaae1" r="11"/><path d="m12 0c-6.627 0-12 5.373-12 12s5.373 12 12 12 12-5.373 12-12-5.373-12-12-12zm8.05 8h-3.396c-.305-1.715-.797-3.22-1.425-4.391 2.103.812 3.822 2.389 4.821 4.391zm-8.05-5c.644 0 1.976 1.732 2.626 5h-5.252c.65-3.268 1.982-5 2.626-5zm-8.768 11c-.147-.644-.232-1.312-.232-2s.085-1.356.232-2h3.855c-.055.649-.087 1.316-.087 2s.032 1.351.086 2zm.718 2h3.396c.305 1.715.797 3.22 1.425 4.391-2.103-.812-3.822-2.389-4.821-4.391zm3.396-8h-3.396c.999-2.002 2.719-3.579 4.821-4.391-.628 1.171-1.12 2.676-1.425 4.391zm4.654 13c-.644 0-1.976-1.732-2.626-5h5.252c-.65 3.268-1.982 5-2.626 5zm2.911-7h-5.822c-.057-.627-.089-1.293-.089-2s.032-1.373.089-2h5.823c.056.627.088 1.293.088 2s-.032 1.373-.089 2zm.318 6.391c.628-1.171 1.12-2.676 1.425-4.391h3.396c-.999 2.002-2.718 3.579-4.821 4.391zm1.685-6.391c.054-.649.086-1.316.086-2s-.032-1.351-.086-2h3.855c.146.644.231 1.312.231 2s-.085 1.356-.232 2z" fill="#2980b9"/></svg>