<svg enable-background="new 0 0 24 24" viewBox="0 0 24 24" xmlns="http://www.w3.org/2000/svg"><path d="m18 6v16h-16v-16zm0-2h-16c-1.105 0-2 .895-2 2v16c0 1.105.895 2 2 2h16c1.105 0 2-.895 2-2v-16c0-1.105-.895-2-2-2z" fill="#bebebe"/><path d="m7.451 12.301-.451 4.699 4.694-.457 7.892-7.881-4.242-4.243z" fill="#f1c40f"/><path d="m23.122.884c-1.173-1.173-3.062-1.181-4.233-.009l-1.414 1.414 4.243 4.243 1.405-1.405c1.17-1.172 1.169-3.073-.001-4.243z" fill="#f0b496"/><path d="m15.526 3.98h6v3h-6z" fill="#656565" transform="matrix(.7071 .7071 -.7071 .7071 9.3009 -11.4945)"/></svg>